<svg xmlns="http://www.w3.org/2000/svg" width="512" height="800" viewBox="0 0 512 800">
  <defs>
    <radialGradient id="glow" cx="50%" cy="40%">
      <stop offset="0%" stop-color="#7b2d8b" stop-opacity="0.3"/>
      <stop offset="100%" stop-color="transparent"/>
    </radialGradient>
  </defs>
  <ellipse cx="256" cy="320" rx="179.2" ry="360" fill="url(#glow)"/>

  <!-- body -->
  <ellipse cx="256" cy="460" rx="102.4" ry="120" fill="#4169e1" opacity="0.85"/>

  <!-- neck -->
  <rect x="244" y="370" width="24" height="30" rx="4" fill="#e8c9a0"/>

  <!-- head -->
  <ellipse cx="256" cy="340" rx="40" ry="45" fill="#e8c9a0"/>

  <!-- hair -->
  <ellipse cx="256" cy="310" rx="42" ry="22" fill="#4169e1"/>
  <ellipse cx="221" cy="335" rx="14" ry="30" fill="#4169e1"/>
  <ellipse cx="291" cy="335" rx="14" ry="30" fill="#4169e1"/>

  <!-- eyes -->
  <g transform="translate(256, 345)"><ellipse cx="-10" cy="-15" rx="5" ry="4" fill="#4169e1" opacity="0.9"/><ellipse cx="10" cy="-15" rx="5" ry="4" fill="#4169e1" opacity="0.9"/></g>

  <!-- mouth -->
  <path d="M 256 370 M -8 5 L 8 5" fill="none" stroke="#8b4040" stroke-width="2" transform="translate(256, 370) translate(-256, -370)"/>

  <!-- outfit details -->
  <path d="M 226 420 L 256 400 L 286 420" fill="#7b2d8b" opacity="0.8"/>

  <text x="256" y="790" text-anchor="middle" font-family="serif" font-size="11" fill="#4169e1" opacity="0.5">kai_neutral</text>
</svg>